<?xml version="1.0" encoding="UTF-8"?>
<svg width="24px" height="24px" viewBox="0 0 24 24" version="1.1" xmlns="http://www.w3.org/2000/svg">
    <title>Lock Icon</title>
    <g stroke="none" stroke-width="1" fill="none" fill-rule="evenodd">
        <path d="M12,1 C14.7614,1 17,3.23858 17,6 L17,10 L19,10 C20.1046,10 21,10.8954 21,12 L21,20 C21,21.1046 20.1046,22 19,22 L5,22 C3.89543,22 3,21.1046 3,20 L3,12 C3,10.8954 3.89543,10 5,10 L7,10 L7,6 C7,3.23858 9.23858,1 12,1 Z M19,12 L5,12 L5,20 L19,20 L19,12 Z M12,3 C10.3431,3 9,4.34315 9,6 L9,10 L15,10 L15,6 C15,4.34315 13.6569,3 12,3 Z M12,15 C12.5523,15 13,15.4477 13,16 C13,16.5523 12.5523,17 12,17 C11.4477,17 11,16.5523 11,16 C11,15.4477 11.4477,15 12,15 Z" fill="#AAAAAA" fill-rule="nonzero"></path>
    </g>
</svg>