<svg width="48" height="48" viewBox="0 0 48 48" fill="none" xmlns="http://www.w3.org/2000/svg">
  <defs>
    <radialGradient id="sproutGradient" cx="50%" cy="30%" r="70%">
      <stop offset="0%" style="stop-color:#7dd3fc;stop-opacity:1" />
      <stop offset="100%" style="stop-color:#0ea5e9;stop-opacity:1" />
    </radialGradient>
  </defs>
  <circle cx="24" cy="24" r="20" fill="url(#sproutGradient)" stroke="#bae6fd" stroke-width="2"/>
  <path d="M24 30c-1 0-2-1-2-2v-6c0-1 1-2 2-2s2 1 2 2v6c0 1-1 2-2 2z" fill="#8b5cf6"/>
  <path d="M20 18c2-2 4-2 6 0s2 4 0 6c-2-2-4-2-6 0s-2-4 0-6z" fill="#22c55e"/>
  <path d="M28 18c-2-2-4-2-6 0s-2 4 0 6c2-2 4-2 6 0s2-4 0-6z" fill="#22c55e"/>
  <circle cx="24" cy="32" r="1" fill="#8b5cf6"/>
</svg>